<svg width="10" height="19" viewBox="0 0 10 19" fill="none" xmlns="http://www.w3.org/2000/svg">
<path d="M0.788574 15H0.288574L0.288574 15.5H0.788574L0.788574 15ZM9.14213 15.3536C9.33739 15.1583 9.33739 14.8417 9.14213 14.6464L5.96015 11.4645C5.76488 11.2692 5.4483 11.2692 5.25304 11.4645C5.05778 11.6597 5.05778 11.9763 5.25304 12.1716L8.08147 15L5.25304 17.8284C5.05778 18.0237 5.05778 18.3403 5.25304 18.5355C5.4483 18.7308 5.76488 18.7308 5.96015 18.5355L9.14213 15.3536ZM0.788574 15.5L8.78857 15.5V14.5L0.788574 14.5L0.788574 15.5ZM1.28857 15L1.28857 0.5L0.288574 0.5L0.288574 15H1.28857Z" fill="#2E36FF"/>
</svg>
