<?xml version="1.0" encoding="iso-8859-1"?>
<!-- Generator: Adobe Illustrator 19.0.0, SVG Export Plug-In . SVG Version: 6.00 Build 0)  -->
<svg version="1.1" id="Capa_1" xmlns="http://www.w3.org/2000/svg" xmlns:xlink="http://www.w3.org/1999/xlink" x="0px" y="0px"
	 viewBox="0 0 512 512" style="enable-background:new 0 0 512 512;" xml:space="preserve">
<g>
	<g>
		<path d="M507.52,103.424c-2.756-1.476-6.11-1.34-8.73,0.367L275.516,250.078c-11.861,7.765-27.187,7.765-39.049-0.009
			L13.201,103.791c-2.611-1.707-5.965-1.843-8.73-0.367C1.724,104.917,0,107.802,0,110.933v290.133c0,4.719,3.823,8.533,8.533,8.533
			h494.933c4.71,0,8.533-3.814,8.525-8.533V110.933C511.991,107.802,510.276,104.917,507.52,103.424z M494.933,392.533H17.067
			V126.728l210.048,137.617c17.544,11.52,40.218,11.494,57.762,0.009l210.057-137.626V392.533z"/>
	</g>
</g>
<g>
	<g>
		<path d="M503.467,102.4H8.533c-4.71,0-8.533,3.814-8.533,8.533v290.133c0,4.719,3.823,8.533,8.533,8.533h494.933
			c4.71,0,8.533-3.814,8.533-8.533V110.933C512,106.214,508.177,102.4,503.467,102.4z M494.933,392.533H17.067V119.467h477.867
			V392.533z"/>
	</g>
</g>
<g>
	<g>
		<path d="M208.12,231.492L13.201,103.791c-2.611-1.707-5.965-1.843-8.73-0.367C1.724,104.917,0,107.802,0,110.933v290.133
			c0,3.302,1.92,6.323,4.915,7.723c1.152,0.546,2.389,0.811,3.618,0.811c1.954,0,3.9-0.674,5.461-1.98l194.918-162.432
			c2.074-1.732,3.208-4.352,3.055-7.049C211.806,235.443,210.381,232.977,208.12,231.492z M17.067,382.857V126.728l172.066,112.734
			L17.067,382.857z"/>
	</g>
</g>
<g>
	<g>
		<path d="M507.529,103.433c-2.756-1.476-6.11-1.34-8.73,0.367L303.881,231.501c-2.261,1.485-3.686,3.951-3.849,6.647
			c-0.154,2.697,0.973,5.316,3.055,7.049l194.918,162.432c1.562,1.297,3.507,1.971,5.461,1.971c1.229,0,2.466-0.265,3.618-0.802
			c2.995-1.399,4.915-4.412,4.915-7.723V110.942C512,107.81,510.285,104.926,507.529,103.433z M494.933,382.857L322.867,239.462
			l172.066-112.734V382.857z"/>
	</g>
</g>
</svg>
